<svg xmlns="http://www.w3.org/2000/svg" width="620.656" height="87.813" viewBox="0 0 620.656 87.813">
  <defs>
    <style>
      .cls-1 {
        fill: #374151;
        fill-rule: evenodd;
      }
    </style>
  </defs>
  <path id="codedmails" class="cls-1" d="M44.908,69.025c-4.244,3.729-7.33,5.015-11.573,5.015C23.819,74.04,17,66.71,17,56.551c0-9.773,6.687-17.1,15.688-17.1a16.376,16.376,0,0,1,12.216,5.272l10.93-9.9c-7.587-6.815-14.917-9.9-23.789-9.9C13.532,24.918.415,38.291,0.415,57.066c0,18.131,13.373,31.5,31.5,31.5A31.917,31.917,0,0,0,54.809,79.7Zm43.2-44.107c-19.289,0-32.534,12.988-32.534,31.891,0,18.517,13.5,31.762,32.277,31.762,18.26,0,32.534-13.759,32.534-31.248C120.386,38.548,106.883,24.918,88.109,24.918Zm0,14.659c9.773,0,15.817,6.687,15.817,17.488,0,9.9-6.558,16.974-15.945,16.974-9.516,0-15.945-6.944-15.945-17.231C72.035,46.393,78.465,39.577,88.109,39.577ZM174.9,33.533c-5.786-6.044-11.573-8.616-19.674-8.616a29.766,29.766,0,0,0-20.189,8.23c-6.172,5.787-9.516,14.145-9.516,24.175,0,18.646,11.831,31.248,29.448,31.248,9.13,0,14.788-2.829,19.931-9.9v7.844h16.332V0.743H174.9V33.533Zm-15.816,5.144c9.13,0,15.816,7.844,15.816,18.646,0,10.287-6.944,18.131-15.945,18.131-9.259,0-16.074-7.716-16.074-18C142.882,46.521,149.7,38.677,159.085,38.677ZM263.751,60.666l0.129-3.215c0-19.16-13.245-32.534-32.277-32.534-18.388,0-31.376,13.116-31.376,31.762,0,18.517,13.5,31.891,32.405,31.891,12.6,0,23.018-6.558,28.933-18.131L246.52,66.324c-2.572,4.758-7.716,7.715-13.76,7.715-8.1,0-14.145-5.144-15.559-13.373h46.55ZM217.2,51.279c1.543-8.1,6.815-12.6,14.659-12.6,8.1,0,13.76,4.758,15.174,12.6H217.2Zm100.81-17.746c-5.787-6.044-11.574-8.616-19.675-8.616a29.766,29.766,0,0,0-20.189,8.23c-6.172,5.787-9.515,14.145-9.515,24.175,0,18.646,11.83,31.248,29.447,31.248,9.13,0,14.788-2.829,19.932-9.9v7.844h16.331V0.743H318.011V33.533Zm-15.817,5.144c9.13,0,15.817,7.844,15.817,18.646,0,10.287-6.944,18.131-15.946,18.131-9.258,0-16.074-7.716-16.074-18C285.991,46.521,292.807,38.677,302.194,38.677Zm45-11.7V86.513h16.331V51.15c0-8.23,3.215-12.473,9.387-12.473,5.915,0,9,4.244,9,12.473V86.513h16.332V50.636c0-7.587,3.472-11.959,9.515-11.959,6.173,0,9.13,3.858,9.13,11.959V86.513h16.331V47.55c0-9-1.157-13.116-4.757-17.1-3.344-3.6-8.359-5.529-14.4-5.529-8.487,0-14.016,3.086-18,9.9-2.829-6.43-8.487-9.9-16.2-9.9-7.587,0-12.6,2.958-16.331,9.516V26.975H347.194Zm144.27,7.587c-5.787-6.815-11.316-9.644-19.417-9.644-17.36,0-29.962,13.759-29.962,32.534,0,18.131,11.959,31.119,28.676,31.119,8.744,0,15.173-3.215,20.7-10.287v8.23H507.8V26.975H491.464v7.587ZM475.39,38.677c9.644,0,16.331,7.458,16.331,18,0,10.287-7.33,18.774-16.46,18.774-8.873,0-15.688-7.844-15.688-18.26C459.573,46.264,466.131,38.677,475.39,38.677Zm61.588-11.7H520.647V86.513h16.331V26.975Zm-8.1-26.1a8.851,8.851,0,0,0-9.13,9.13,9.067,9.067,0,0,0,18.131.129C537.878,4.729,534.149.871,528.877,0.871Zm37.416,85.642V0.743H549.962V86.513h16.331Zm53.876-42.307c-0.385-12.088-8.615-19.289-22.246-19.289-13.888,0-23.018,7.587-23.018,18.9,0,9.387,5.787,15.174,18.646,19.032,8.744,2.7,11.059,4.372,11.059,7.973,0,3.343-2.7,5.658-6.558,5.658-4.758,0-7.073-2.315-7.844-7.458H574.519c0.643,12.345,9.259,19.546,23.4,19.546,13.888,0,23.146-7.715,23.146-19.289,0-9.644-5.272-14.917-18.645-19.031-8.23-2.572-8.359-2.572-10.159-3.986a4.933,4.933,0,0,1-1.672-3.858c0-3.215,2.572-5.4,6.558-5.4,4.373,0,7.587,2.572,7.587,6.172v1.029h15.431Z" transform="translate(-0.406 -0.75)"/>
</svg>
